<svg width="102" height="40" viewBox="0 0 102 40" fill="none" xmlns="http://www.w3.org/2000/svg">
<path fill-rule="evenodd" clip-rule="evenodd" d="M15.9631 8.43425L21.1133 9.34236C21.2075 9.35898 21.2622 9.45868 21.2247 9.54672C21.0649 9.92201 20.9527 10.1466 20.8496 10.3077C20.7632 10.4427 20.6969 10.5123 20.6273 10.5652C20.5543 10.6207 20.4167 10.7036 20.1389 10.7862C18.8283 11.176 18.0819 12.5544 18.4717 13.865C18.8616 15.1756 20.24 15.922 21.5506 15.5321C23.1965 15.0426 24.2747 14.1414 25.02 12.9768C25.3504 12.4606 25.5911 11.9308 25.7802 11.4869C25.8593 11.3012 25.9307 11.1276 25.9977 10.9649L25.9992 10.9612C26.1693 10.5474 26.6063 10.3109 27.0469 10.3886C28.1253 10.5788 28.884 10.9959 29.3228 11.64C29.7686 12.2854 29.8958 13.1508 29.7044 14.2362L26.7407 31.0438C26.5481 32.1362 26.1326 32.9059 25.4942 33.3529C24.8628 33.8011 24.0078 33.9302 22.9294 33.74L11.8457 31.7857C10.7672 31.5955 10.0045 31.1812 9.55746 30.5428C9.11741 29.9057 8.99369 29.0409 9.1863 27.9485L12.1499 11.1409C12.3413 10.0555 12.7534 9.28516 13.386 8.82996C14.0257 8.37599 14.8847 8.24409 15.9631 8.43425ZM17.0378 22.663C17.5098 23.337 18.148 23.7449 18.9526 23.8868C19.7572 24.0287 20.4965 23.8636 21.1704 23.3917C21.8444 22.9198 22.2524 22.2815 22.3942 21.4769C22.5361 20.6724 22.3711 19.9331 21.8991 19.2591C21.4272 18.5851 20.789 18.1772 19.9844 18.0353C19.1798 17.8934 18.4405 18.0585 17.7665 18.5304C17.0925 19.0023 16.6846 19.6406 16.5428 20.4452C16.4009 21.2497 16.5659 21.989 17.0378 22.663ZM12.1597 28.1942C12.0742 28.679 12.3979 29.1413 12.8826 29.2267L22.8301 30.9808C23.3149 31.0662 23.7772 30.7425 23.8626 30.2578L24.069 29.0875C24.1421 28.673 24.1026 28.2733 23.9505 27.8882C23.7984 27.5032 23.5618 27.188 23.2405 26.9428C22.5513 26.4317 21.8333 26.0128 21.0864 25.6863C20.3395 25.3598 19.5638 25.1256 18.7592 24.9837C17.9546 24.8418 17.1456 24.7966 16.332 24.848C15.5185 24.8994 14.7006 25.0474 13.8781 25.292C13.4923 25.4125 13.1621 25.6277 12.8876 25.9375C12.613 26.2473 12.4391 26.6095 12.366 27.024L12.1597 28.1942Z" fill="#2845C1"/>
<path fill-rule="evenodd" clip-rule="evenodd" d="M28.4153 7.25835C28.4278 7.80513 27.9947 8.25852 27.4479 8.27102C27.1432 8.27799 26.6029 8.36208 26.0866 8.59358C25.5744 8.82325 25.1755 9.15497 24.9741 9.60658C24.8479 9.88939 24.744 10.142 24.6384 10.3989C24.5706 10.5637 24.5021 10.7302 24.4266 10.9076C24.2464 11.3306 24.0442 11.769 23.7819 12.1788C23.2235 13.0513 22.4351 13.7259 21.14 14.1111C20.6158 14.267 20.0644 13.9685 19.9085 13.4443C19.7526 12.92 20.0512 12.3687 20.5754 12.2127C21.4027 11.9666 21.8046 11.5941 22.1137 11.1112C22.2851 10.8433 22.4359 10.527 22.6044 10.1315C22.6602 10.0005 22.7214 9.85201 22.7866 9.69384C22.9027 9.41211 23.0316 9.0996 23.1652 8.79986C23.6291 7.75986 24.4873 7.14008 25.2763 6.78635C26.0611 6.43445 26.866 6.30323 27.4027 6.29096C27.9494 6.27845 28.4028 6.71157 28.4153 7.25835Z" fill="#C83F49"/>
<path d="M16.8249 6.39789C16.3154 6.19914 16.0634 5.62496 16.2622 5.11543C16.461 4.6059 17.0351 4.35397 17.5447 4.55273C18.0448 4.74781 18.7562 5.14639 19.3734 5.74551C19.8305 6.18923 20.2735 6.78154 20.5072 7.51695C20.5399 7.6201 20.4498 7.71728 20.3432 7.69848L18.326 7.34279C18.1998 7.32055 18.0858 7.25585 17.9938 7.16661C17.5878 6.77248 17.1088 6.50865 16.8249 6.39789Z" fill="#C83F49"/>
<path d="M20.9346 14.1493C20.8723 14.1209 20.8121 14.0856 20.755 14.0432C20.4026 13.7818 20.1108 13.5101 19.8697 13.2276C19.8392 12.7759 20.1232 12.3472 20.5754 12.2127C20.8802 12.1221 21.1274 12.0142 21.3332 11.8901C21.4842 12.0772 21.6795 12.263 21.9349 12.4524C22.3136 12.7334 22.4342 13.2333 22.2513 13.6472C21.9281 13.8303 21.5606 13.986 21.14 14.1111C21.0716 14.1315 21.003 14.144 20.9346 14.1493Z" fill="#C83F49"/>
<path fill-rule="evenodd" clip-rule="evenodd" d="M70.4198 15.5822C71.2645 15.5822 72.0007 15.7275 72.6302 16.0144C72.6566 16.0264 72.6853 16.0329 72.7143 16.0329H76.6529C76.7622 16.0329 76.8509 16.1216 76.8509 16.2309V17.9566C76.8509 18.066 76.7622 18.1547 76.6529 18.1547H74.9582C74.8185 18.1547 74.7224 18.2957 74.7635 18.4292C74.8753 18.793 74.9322 19.1752 74.9322 19.5763C74.9322 20.3132 74.7526 20.9905 74.3916 21.6071C74.0457 22.2238 73.5337 22.7122 72.8569 23.0732C72.1799 23.4343 71.3675 23.6148 70.4198 23.6148C69.9907 23.6148 69.5888 23.5759 69.2138 23.4993C69.1523 23.4868 69.0878 23.5023 69.0418 23.545C68.9855 23.5972 68.9329 23.6505 68.8851 23.7057C68.6899 23.9161 68.5922 24.1413 68.592 24.3817C68.592 24.6072 68.6599 24.7879 68.7951 24.9233C68.9305 25.0436 69.141 25.1041 69.4266 25.1041H72.4507C73.4284 25.1041 74.2409 25.2621 74.8877 25.578C75.5496 25.8788 76.0379 26.3004 76.3538 26.842C76.6848 27.3835 76.8509 28 76.8509 28.692C76.8509 29.3087 76.7073 29.8801 76.4215 30.4066C76.1508 30.9331 75.7527 31.3926 75.2262 31.7837C74.7149 32.1898 74.098 32.4977 73.3762 32.7083C72.6541 32.9339 71.8561 33.0467 70.9836 33.0467C69.8104 33.0467 68.7947 32.9041 67.9373 32.6183C67.0951 32.3476 66.4404 31.9413 65.9742 31.3998C65.523 30.8584 65.2973 30.1964 65.2972 29.4144C65.2972 28.7074 65.5085 28.0827 65.9297 27.5412C66.1454 27.2715 66.4063 27.0132 66.7127 26.7671C66.8097 26.6892 66.8169 26.5428 66.7339 26.45C66.6244 26.3276 66.5289 26.195 66.448 26.0518C66.2676 25.7059 66.1772 25.3447 66.1772 24.9687C66.1773 24.3821 66.3578 23.863 66.7188 23.4117C66.8658 23.2294 67.0444 23.057 67.2537 22.8934C67.3604 22.8101 67.3642 22.6465 67.2619 22.5578C66.9468 22.2847 66.6828 21.9684 66.4712 21.6071C66.1103 20.9905 65.9297 20.3132 65.9297 19.5763C65.9297 18.8542 66.1102 18.1916 66.4712 17.5899C66.8322 16.9734 67.3434 16.4847 68.005 16.1238C68.682 15.7628 69.4872 15.5822 70.4198 15.5822ZM68.7065 27.2481C68.6601 27.2481 68.6149 27.2644 68.5798 27.2947C68.3541 27.4896 68.1547 27.6995 67.9828 27.9251C67.7572 28.256 67.6443 28.647 67.6443 29.0982C67.6443 29.4893 67.7725 29.8278 68.0282 30.1136C68.2989 30.4143 68.6747 30.6401 69.1558 30.7905C69.6523 30.956 70.2544 31.0391 70.9614 31.0391C71.6985 31.0391 72.3232 30.9488 72.8346 30.7683C73.3459 30.6028 73.7298 30.3545 73.9855 30.0236C74.2562 29.7078 74.3916 29.3385 74.3916 28.9173C74.3916 28.6017 74.3237 28.316 74.1885 28.0605C74.0532 27.8199 73.8273 27.6239 73.5116 27.4735C73.1957 27.323 72.7587 27.2481 72.2022 27.2481H68.7065ZM70.4421 17.4545C69.9759 17.4545 69.5695 17.553 69.2235 17.7485C68.8928 17.929 68.6371 18.1774 68.4566 18.4931C68.2913 18.809 68.2081 19.1702 68.2081 19.5763C68.2082 19.9823 68.2912 20.3508 68.4566 20.6816C68.6371 21.0125 68.8928 21.268 69.2235 21.4485C69.5695 21.629 69.9759 21.7193 70.4421 21.7193C70.9084 21.7193 71.3074 21.6291 71.6383 21.4485C71.9692 21.253 72.2176 20.9975 72.383 20.6816C72.5635 20.3508 72.6537 19.9823 72.6538 19.5763C72.6538 19.1551 72.5635 18.7858 72.383 18.4699C72.2175 18.1541 71.9692 17.9057 71.6383 17.7253C71.3074 17.5448 70.9084 17.4545 70.4421 17.4545Z" fill="#2845C1"/>
<path fill-rule="evenodd" clip-rule="evenodd" d="M59.0663 15.5822C59.8483 15.5822 60.5554 15.7096 61.1871 15.9652C61.8188 16.2209 62.3606 16.5749 62.8118 17.0261C63.2781 17.4774 63.632 18.0118 63.8727 18.6285C64.1133 19.2451 64.2334 19.9143 64.2334 20.6362C64.2334 20.907 64.219 21.1706 64.1889 21.4263C64.1671 21.6115 64.1412 21.773 64.1114 21.9108C64.0925 21.9981 64.0138 22.0578 63.9245 22.0578H56.0046C55.8896 22.0578 55.7984 22.1555 55.8105 22.2698C55.8739 22.868 56.0185 23.384 56.2463 23.8179C56.5621 24.4195 57.0055 24.8709 57.577 25.1718C58.1486 25.4727 58.7959 25.6234 59.5179 25.6234C60.1948 25.6234 60.8042 25.488 61.3457 25.2173C61.8337 24.9798 62.2348 24.6727 62.5493 24.2964C62.6214 24.2101 62.7497 24.1925 62.8376 24.2626L64.3098 25.4363C64.3934 25.5029 64.4093 25.624 64.3426 25.7074C63.8329 26.3439 63.1869 26.8575 62.4056 27.2481C61.5633 27.6541 60.608 27.8574 59.5402 27.8574C58.2165 27.8574 57.088 27.5784 56.1554 27.0218C55.2229 26.4502 54.5087 25.6982 54.0123 24.7656C53.5159 23.833 53.2677 22.8175 53.2677 21.7193C53.2677 20.862 53.395 20.0647 53.6506 19.3277C53.9214 18.5906 54.305 17.9434 54.8015 17.3868C55.2978 16.8153 55.9073 16.372 56.6292 16.0561C57.3513 15.7402 58.1638 15.5822 59.0663 15.5822ZM58.9986 17.6353C58.3369 17.6354 57.758 17.7862 57.2617 18.087C56.7804 18.3878 56.4111 18.8311 56.1554 19.4177C56.0726 19.6028 56.0045 19.8025 55.9492 20.0163C55.9178 20.1378 56.012 20.2532 56.1375 20.2532H61.5891C61.7009 20.2532 61.7913 20.1606 61.7796 20.0493C61.7421 19.6925 61.6355 19.3543 61.4579 19.0347C61.2473 18.6136 60.9394 18.275 60.5334 18.0193C60.1272 17.7635 59.6154 17.6353 58.9986 17.6353Z" fill="#2845C1"/>
<path fill-rule="evenodd" clip-rule="evenodd" d="M88.7228 15.5822C89.5048 15.5822 90.2119 15.7096 90.8436 15.9652C91.4753 16.2209 92.0171 16.5749 92.4683 17.0261C92.9346 17.4774 93.2885 18.0118 93.5292 18.6285C93.7698 19.2451 93.8899 19.9143 93.8899 20.6362C93.8899 20.907 93.8755 21.1706 93.8454 21.4263C93.8236 21.6115 93.7977 21.773 93.7679 21.9108C93.7491 21.9981 93.6703 22.0578 93.581 22.0578H85.6611C85.5461 22.0578 85.455 22.1555 85.4671 22.2698C85.5304 22.868 85.675 23.384 85.9028 23.8179C86.2187 24.4195 86.662 24.8709 87.2335 25.1718C87.8051 25.4727 88.4524 25.6234 89.1744 25.6234C89.8513 25.6234 90.4607 25.488 91.0022 25.2173C91.4902 24.9798 91.8913 24.6727 92.2058 24.2964C92.2779 24.2101 92.4062 24.1925 92.4941 24.2626L93.9664 25.4363C94.0499 25.5029 94.0659 25.624 93.9991 25.7074C93.4894 26.3439 92.8434 26.8575 92.0621 27.2481C91.2198 27.6542 90.2646 27.8574 89.1967 27.8574C87.8729 27.8574 86.7445 27.5784 85.8119 27.0218C84.8794 26.4502 84.1652 25.6982 83.6688 24.7656C83.1724 23.833 82.9242 22.8175 82.9242 21.7193C82.9242 20.862 83.0515 20.0647 83.3071 19.3277C83.5779 18.5906 83.9616 17.9434 84.458 17.3868C84.9543 16.8153 85.5638 16.372 86.2858 16.0561C87.0078 15.7402 87.8203 15.5822 88.7228 15.5822ZM88.6551 17.6353C87.9934 17.6354 87.4146 17.7862 86.9182 18.087C86.4369 18.3878 86.0676 18.8311 85.8119 19.4177C85.7291 19.6028 85.661 19.8025 85.6057 20.0163C85.5743 20.1378 85.6685 20.2532 85.794 20.2532H91.2456C91.3574 20.2532 91.4478 20.1606 91.4361 20.0493C91.3986 19.6925 91.292 19.3543 91.1144 19.0347C90.9038 18.6136 90.5959 18.275 90.1899 18.0193C89.7837 17.7635 89.2719 17.6353 88.6551 17.6353Z" fill="#2845C1"/>
<path fill-rule="evenodd" clip-rule="evenodd" d="M45.1829 11.6104C46.8676 11.6105 48.191 12.0248 49.1537 12.8522C50.1314 13.6795 50.6207 14.7998 50.6208 16.2137C50.6208 17.1613 50.395 17.9811 49.9438 18.673C49.5076 19.35 48.8829 19.8772 48.0706 20.2532C48.045 20.2648 48.0353 20.295 48.0514 20.318L52.7942 27.0941C52.8861 27.2254 52.7922 27.4058 52.632 27.4058H49.8695C49.803 27.4058 49.7409 27.3723 49.7043 27.3168L45.4859 20.9267C45.4297 20.8416 45.3338 20.7925 45.2318 20.7943C45.2155 20.7946 45.1992 20.7948 45.1829 20.7948H43.5754C43.466 20.7948 43.3773 20.8835 43.3773 20.9928V27.2077C43.3773 27.3171 43.2887 27.4058 43.1793 27.4058H40.7999C40.6905 27.4058 40.6018 27.3171 40.6018 27.2077V11.8085C40.6018 11.6991 40.6905 11.6104 40.7999 11.6104H45.1829ZM43.3773 18.2951C43.3773 18.4045 43.466 18.4931 43.5754 18.4931H45.3183C46.1002 18.4931 46.7017 18.2898 47.1228 17.8839C47.544 17.4627 47.7553 16.8903 47.7553 16.1683C47.7552 15.4915 47.544 14.9497 47.1228 14.5436C46.7017 14.1377 46.1001 13.9353 45.3183 13.9353H43.5754C43.466 13.9353 43.3773 14.024 43.3773 14.1333V18.2951Z" fill="#2845C1"/>
<path d="M80.7927 27.2077C80.7927 27.3171 80.7041 27.4058 80.5947 27.4058H78.5093C78.3999 27.4058 78.3112 27.3171 78.3112 27.2077V16.2309C78.3112 16.1216 78.3999 16.0329 78.5093 16.0329H80.5947C80.7041 16.0329 80.7927 16.1216 80.7927 16.2309V27.2077Z" fill="#2845C1"/>
<path d="M60.4572 14.1456C60.42 14.1975 60.3601 14.2283 60.2962 14.2283H58.3846C58.2293 14.2283 58.1344 14.0578 58.2163 13.9258L60.2944 10.5764C60.3305 10.5182 60.3942 10.4828 60.4627 10.4828H62.6969C62.8582 10.4828 62.9519 10.6652 62.8579 10.7962L60.4572 14.1456Z" fill="#2845C1"/>
<path d="M79.5742 10.3474C79.875 10.3474 80.1459 10.4224 80.3866 10.5727C80.6423 10.7232 80.8382 10.9263 80.9736 11.182C81.124 11.4227 81.1989 11.6935 81.1989 11.9944C81.1989 12.2951 81.1239 12.5733 80.9736 12.8289C80.8382 13.0847 80.6423 13.2878 80.3866 13.4382C80.1459 13.5736 79.875 13.6413 79.5742 13.6413C79.2734 13.6413 78.9953 13.5736 78.7396 13.4382C78.4839 13.2878 78.2808 13.0847 78.1304 12.8289C77.98 12.5733 77.905 12.2951 77.905 11.9944C77.905 11.5431 78.063 11.1594 78.3789 10.8435C78.7098 10.5127 79.1081 10.3475 79.5742 10.3474Z" fill="#2845C1"/>
</svg>
