<svg width="32" height="33" viewBox="0 0 32 33" fill="none" xmlns="http://www.w3.org/2000/svg">
<path fill-rule="evenodd" clip-rule="evenodd" d="M12.1196 5.07095L17.3203 5.98796C17.4154 6.00474 17.4706 6.10543 17.4328 6.19433C17.2714 6.57329 17.1581 6.80005 17.0539 6.96275C16.9667 7.09909 16.8998 7.16937 16.8295 7.22281C16.7557 7.27883 16.6168 7.3625 16.3363 7.44595C15.0129 7.83959 14.2592 9.23154 14.6528 10.5549C15.0465 11.8784 16.4384 12.6321 17.7618 12.2384C19.4239 11.744 20.5126 10.8341 21.2653 9.65807C21.5989 9.13681 21.842 8.60181 22.0329 8.15355C22.1128 7.966 22.1849 7.79074 22.2525 7.62637L22.254 7.62267C22.4259 7.20484 22.8671 6.96601 23.312 7.04447C24.401 7.23649 25.1671 7.65773 25.6102 8.30817C26.0604 8.95985 26.1888 9.83372 25.9956 10.9298L23.0029 27.9022C22.8084 29.0053 22.3888 29.7825 21.7441 30.2339C21.1065 30.6865 20.2432 30.8168 19.1541 30.6248L7.96177 28.6513C6.87274 28.4593 6.10253 28.0409 5.65114 27.3963C5.20677 26.7529 5.08183 25.8796 5.27634 24.7765L8.26903 7.80411C8.4623 6.70806 8.87836 5.9302 9.51723 5.47054C10.1631 5.01212 11.0306 4.87892 12.1196 5.07095ZM13.2049 19.4392C13.6814 20.1198 14.3259 20.5317 15.1384 20.675C15.9509 20.8182 16.6974 20.6516 17.378 20.175C18.0586 19.6985 18.4705 19.054 18.6138 18.2415C18.757 17.429 18.5904 16.6825 18.1138 16.0019C17.6373 15.3213 16.9927 14.9094 16.1803 14.7661C15.3678 14.6229 14.6213 14.7895 13.9407 15.2661C13.2601 15.7426 12.8482 16.3872 12.7049 17.1996C12.5616 18.0121 12.7283 18.7586 13.2049 19.4392ZM8.27886 25.0247C8.19255 25.5142 8.5194 25.981 9.00891 26.0673L19.0539 27.8385C19.5434 27.9248 20.0102 27.598 20.0966 27.1084L20.3049 25.9267C20.3787 25.5081 20.3389 25.1045 20.1853 24.7156C20.0317 24.3268 19.7927 24.0086 19.4683 23.761C18.7724 23.2448 18.0473 22.8218 17.2931 22.4921C16.5389 22.1624 15.7555 21.9259 14.9431 21.7826C14.1306 21.6394 13.3136 21.5937 12.4921 21.6456C11.6707 21.6975 10.8446 21.8469 10.0141 22.094C9.62458 22.2157 9.29116 22.433 9.01387 22.7458C8.73658 23.0587 8.56104 23.4244 8.48724 23.8429L8.27886 25.0247Z" fill="#000091"/>
<path fill-rule="evenodd" clip-rule="evenodd" d="M24.694 3.88339C24.7066 4.43554 24.2692 4.89337 23.7171 4.90599C23.4094 4.91303 22.8638 4.99795 22.3424 5.23172C21.8251 5.46364 21.4224 5.79861 21.219 6.25464C21.0916 6.54023 20.9867 6.79533 20.88 7.05474C20.8115 7.22114 20.7424 7.38931 20.6661 7.56844C20.4842 7.99554 20.2799 8.43826 20.0151 8.85213C19.4512 9.73317 18.6551 10.4143 17.3473 10.8033C16.818 10.9608 16.2612 10.6593 16.1037 10.1299C15.9463 9.60059 16.2478 9.04381 16.7771 8.88635C17.6126 8.63784 18.0184 8.26165 18.3305 7.774C18.5036 7.50353 18.6559 7.18409 18.826 6.78475C18.8824 6.65241 18.9442 6.50248 19.01 6.34276C19.1273 6.05827 19.2574 5.7427 19.3924 5.44002C19.8608 4.38982 20.7275 3.76397 21.5241 3.40676C22.3167 3.05141 23.1294 2.91891 23.6714 2.90652C24.2235 2.89389 24.6813 3.33125 24.694 3.88339Z" fill="#C9191E"/>
<path d="M12.9899 3.0145C12.4754 2.81379 12.221 2.23399 12.4217 1.71946C12.6224 1.20494 13.2022 0.950538 13.7167 1.15125C14.2217 1.34824 14.9402 1.75073 15.5634 2.35572C16.0249 2.80379 16.4723 3.40191 16.7083 4.14453C16.7414 4.2487 16.6503 4.34682 16.5427 4.32784L14.5057 3.96866C14.3783 3.9462 14.2631 3.88087 14.1703 3.79076C13.7603 3.39276 13.2766 3.12635 12.9899 3.0145Z" fill="#C9191E"/>
<path d="M17.1398 10.8419C17.077 10.8132 17.0162 10.7776 16.9585 10.7348C16.6026 10.4708 16.308 10.1964 16.0646 9.91118C16.0338 9.455 16.3205 9.02217 16.7771 8.88635C17.0849 8.7948 17.3346 8.68583 17.5424 8.56059C17.6949 8.74952 17.8921 8.93714 18.1499 9.12841C18.5324 9.41212 18.6542 9.91688 18.4695 10.3349C18.1431 10.5197 17.772 10.677 17.3473 10.8033C17.2782 10.8239 17.209 10.8365 17.1398 10.8419Z" fill="#C9191E"/>
</svg>
