<svg width="20" height="22" viewBox="0 0 20 22" fill="none" xmlns="http://www.w3.org/2000/svg">
<path d="M0.833274 20.1996C0.649147 20.3682 0.358822 20.3058 0.307032 20.0616C0.269011 19.8823 0.25 19.6731 0.25 19.4341V11.1863C0.25 10.9274 0.269011 10.7057 0.307032 10.5214C0.357913 10.3057 0.595223 10.2539 0.76765 10.3933L6.08706 14.6925C6.29962 14.8643 6.30951 15.1849 6.10795 15.3695L0.833274 20.1996ZM2.56385 21.75C2.26512 21.75 1.99897 21.7201 1.76541 21.6603C1.75027 21.6564 1.7353 21.6523 1.7205 21.6482C1.43988 21.5697 1.40379 21.2299 1.61856 21.033L7.11023 15.9974C7.27385 15.8473 7.52281 15.8402 7.69478 15.9806L8.58475 16.7072C8.82374 16.8965 9.06817 17.0409 9.31802 17.1405C9.56787 17.2352 9.82044 17.2825 10.0757 17.2825C10.331 17.2825 10.5836 17.2352 10.8334 17.1405C11.0887 17.0409 11.3358 16.8965 11.5748 16.7072L12.4648 15.9806C12.6368 15.8402 12.8857 15.8473 13.0494 15.9974L18.541 21.033C18.7558 21.2299 18.7193 21.5689 18.4384 21.6464C18.4212 21.6512 18.4037 21.6558 18.386 21.6603C18.1579 21.7201 17.8945 21.75 17.5957 21.75H2.56385ZM19.8444 20.0616C19.7936 20.3011 19.5089 20.3668 19.3283 20.2014L14.0516 15.3695C13.8501 15.1849 13.86 14.8643 14.0725 14.6925L19.3944 10.3913C19.5625 10.2555 19.7948 10.3111 19.8444 10.5214C19.8879 10.7057 19.9096 10.9274 19.9096 11.1863V19.4341C19.9096 19.6731 19.8879 19.8823 19.8444 20.0616Z" fill="#000091"/>
<path d="M3.82451 11.1887L1.37227 9.18726C0.80273 8.72242 0.80273 7.85211 1.37227 7.38727L9.08957 1.08863C9.64277 0.637124 10.4373 0.637124 10.9905 1.08863L18.7078 7.38727C19.2773 7.85211 19.2773 8.72242 18.7078 9.18726L16.3352 11.1237V8.50847C16.3352 7.67831 15.6622 7.00533 14.832 7.00533H5.32766C4.49749 7.00533 3.82451 7.67831 3.82451 8.50847V11.1887Z" fill="#000091"/>
</svg>
